 <svg version="1.0" xmlns="http://www.w3.org/2000/svg" width="700.000000pt" height="166.000000pt" viewBox="0 0 700.000000 166.000000" preserveAspectRatio="xMidYMid meet">
<metadata>
Created by potrace 1.12, written by Peter Selinger 2001-2015
</metadata>
<g transform="translate(0.000000,166.000000) scale(0.100000,-0.100000)" fill="#000000" stroke="none">
<path d="M416 1341 c-3 -5 -28 -14 -55 -21 -28 -6 -55 -18 -62 -26 -6 -8 -20
-14 -30 -14 -22 0 -189 -157 -189 -178 0 -8 -7 -23 -15 -32 -19 -21 -31 -80
-17 -80 6 0 16 16 22 35 18 55 91 146 161 201 90 70 177 99 297 99 59 -1 91 3
89 10 -5 13 -193 19 -201 6z"></path>
<path d="M2990 1296 c0 -60 17 -78 22 -23 2 20 8 32 18 32 10 0 16 -12 18 -32
5 -55 22 -37 19 20 l-3 52 -37 3 -37 3 0 -55z"></path>
<path d="M6402 813 l3 -538 45 0 45 0 0 84 c0 76 2 85 23 98 12 9 22 21 22 28
0 6 9 20 20 30 20 18 28 50 11 43 -17 -6 -83 -101 -92 -132 -5 -17 -9 -48 -9
-68 0 -41 -14 -56 -35 -38 -13 11 -15 85 -15 494 0 493 2 523 37 495 10 -9 13
-76 13 -320 0 -199 4 -309 10 -309 6 0 11 110 12 305 1 168 2 317 2 333 1 25
-2 27 -47 30 l-47 3 2 -538z"></path>
<path d="M640 1321 c0 -4 25 -16 55 -26 31 -9 83 -35 115 -57 90 -60 155 -148
110 -148 -5 0 -38 26 -73 58 -62 56 -160 112 -174 99 -8 -8 26 -36 44 -37 25
0 104 -63 134 -106 31 -41 35 -44 80 -44 26 0 51 5 54 10 15 25 -157 210 -194
210 -10 0 -24 6 -30 14 -7 8 -35 19 -62 25 -60 13 -59 13 -59 2z"></path>
<path d="M400 1257 c-96 -35 -121 -50 -183 -111 -38 -38 -68 -81 -97 -140
l-42 -86 4 -127 c3 -124 4 -130 38 -193 44 -81 148 -188 220 -226 52 -27 61
-29 185 -29 l130 0 70 38 c39 21 96 61 127 88 84 73 115 66 56 -12 -45 -58
-139 -120 -225 -148 -62 -20 -87 -23 -180 -19 -91 3 -117 8 -167 31 -83 39
-144 88 -198 160 -43 56 -55 78 -72 129 -3 10 -10 18 -16 18 -15 0 -3 -59 16
-81 8 -8 14 -21 14 -27 0 -23 154 -182 176 -182 6 0 17 -7 24 -15 7 -8 27 -17
46 -21 18 -3 38 -12 45 -20 9 -11 44 -14 150 -14 120 0 144 3 176 20 21 11 45
20 54 20 9 0 22 7 29 15 7 8 18 15 25 15 10 0 99 83 157 147 11 12 18 32 16
45 -3 20 -8 23 -43 20 -31 -3 -47 -11 -75 -41 -47 -51 -114 -101 -136 -101
-10 0 -28 -10 -42 -22 -22 -21 -32 -23 -158 -22 -122 0 -136 2 -164 22 -16 12
-32 22 -36 22 -12 0 -98 83 -135 130 -78 99 -82 111 -83 260 -1 109 2 141 15
160 9 14 19 38 23 54 9 38 164 193 202 202 16 4 38 13 49 20 14 10 56 14 144
14 92 0 122 3 114 11 -6 6 -51 13 -100 16 -75 3 -98 0 -153 -20z"></path>
<path d="M2990 1120 c0 -40 4 -70 10 -70 6 0 10 30 10 70 0 40 -4 70 -10 70
-6 0 -10 -30 -10 -70z"></path>
<path d="M4520 1144 c0 -8 5 -12 10 -9 6 3 10 10 10 16 0 5 -4 9 -10 9 -5 0
-10 -7 -10 -16z"></path>
<path d="M4617 1154 c-7 -7 14 -44 26 -44 12 0 4 43 -9 47 -5 2 -13 1 -17 -3z"></path>
<path d="M4640 1080 c0 -5 5 -10 10 -10 6 0 10 5 10 10 0 6 -4 10 -10 10 -5 0
-10 -4 -10 -10z"></path>
<path d="M5460 1081 c-19 -4 -45 -13 -57 -19 -12 -7 -31 -12 -42 -12 -28 0
-152 -129 -185 -191 -25 -49 -35 -109 -17 -109 5 0 11 19 15 41 8 51 47 108
117 174 138 130 326 125 479 -12 28 -25 61 -64 72 -87 28 -54 50 -166 36 -183
-8 -10 -79 -13 -297 -13 -270 0 -331 -4 -331 -19 0 -10 640 -5 651 6 13 13 -5
170 -23 191 -8 9 -23 34 -33 55 -18 35 -103 117 -121 117 -4 0 -15 6 -23 14
-20 17 -151 56 -183 55 -12 -1 -39 -4 -58 -8z"></path>
<path d="M1268 1062 c-46 -16 -97 -56 -87 -67 3 -3 31 9 63 26 40 22 61 28 68
21 18 -18 1 -40 -50 -66 -54 -28 -108 -83 -118 -122 -9 -36 3 -42 17 -8 17 39
79 104 100 104 9 0 22 6 29 14 6 8 21 16 33 18 19 3 22 9 22 48 0 53 -9 56
-77 32z"></path>
<path d="M2400 1064 c-14 -7 -38 -14 -53 -14 -65 0 -208 -153 -230 -245 -15
-61 -20 -235 -8 -235 7 0 11 31 11 83 0 137 51 248 151 327 65 52 172 85 245
76 51 -6 73 5 38 18 -28 11 -128 4 -154 -10z"></path>
<path d="M3530 1064 c-14 -7 -33 -14 -43 -14 -41 0 -197 -145 -197 -183 0 -6
-6 -18 -14 -26 -15 -18 -30 -141 -17 -141 5 0 12 23 16 50 12 86 77 190 150
240 53 37 148 70 200 70 22 0 72 -10 110 -22 60 -20 80 -33 135 -88 74 -74
110 -138 110 -199 0 -22 5 -41 10 -41 17 0 12 106 -5 120 -8 7 -15 23 -15 37
0 13 -7 26 -16 30 -9 3 -19 14 -22 24 -12 31 -134 129 -162 129 -14 0 -38 7
-54 15 -36 19 -152 18 -186 -1z"></path>
<path d="M6240 1065 c-7 -8 -22 -15 -34 -15 -13 0 -33 -11 -46 -25 -26 -28
-20 -47 7 -23 23 20 90 44 99 35 13 -12 -6 -37 -48 -63 -67 -41 -107 -85 -119
-127 -6 -22 -8 -41 -5 -44 11 -11 26 10 26 35 0 27 72 112 96 112 6 0 17 6 23
14 6 7 25 16 41 20 26 5 30 10 30 39 0 52 -41 77 -70 42z"></path>
<path d="M1070 1048 c-12 -11 -14 -37 -12 -140 2 -71 7 -128 12 -128 5 0 11
53 12 118 3 109 4 117 23 117 13 0 20 7 20 20 0 24 -33 32 -55 13z"></path>
<path d="M1413 1043 c-3 -7 1 -21 10 -31 8 -9 18 -33 22 -52 4 -19 14 -44 21
-55 8 -11 14 -30 14 -43 0 -13 9 -35 20 -49 11 -14 20 -38 20 -53 0 -15 7 -33
15 -40 8 -7 18 -30 21 -51 4 -21 13 -44 20 -50 7 -6 16 -27 20 -48 3 -20 12
-46 20 -58 8 -12 14 -33 14 -45 0 -13 9 -34 20 -48 11 -14 20 -32 20 -41 0 -8
7 -24 15 -35 13 -18 14 -18 15 -1 0 10 -9 39 -19 65 -11 26 -28 72 -40 102
-35 93 -131 343 -146 380 -26 63 -42 119 -37 125 13 13 43 3 52 -17 39 -97
120 -308 125 -328 4 -14 14 -34 21 -45 8 -11 14 -27 14 -37 0 -22 41 -108 52
-108 12 0 9 23 -6 45 -7 11 -16 36 -20 56 -4 21 -13 42 -21 49 -8 7 -15 24
-15 39 0 14 -9 40 -20 56 -11 17 -20 42 -20 56 0 15 -7 32 -15 39 -8 7 -15 20
-15 29 0 9 -8 33 -19 53 -10 20 -21 51 -25 68 -3 18 -15 44 -26 59 -16 23 -27
28 -61 28 -26 0 -43 -5 -46 -14z"></path>
<path d="M2011 1047 c-6 -6 -11 -19 -11 -28 0 -9 -7 -22 -15 -29 -8 -7 -15
-22 -15 -34 0 -12 -9 -39 -20 -61 -11 -22 -20 -47 -20 -56 0 -9 -7 -22 -15
-29 -8 -7 -15 -19 -15 -28 0 -15 -25 -75 -61 -144 -10 -20 -19 -48 -19 -61 0
-14 -6 -30 -14 -36 -16 -13 -27 -61 -14 -61 9 0 58 101 58 120 0 7 7 24 14 38
15 27 93 210 122 287 28 73 39 90 62 93 12 2 22 2 22 0 0 -11 -77 -202 -156
-389 -30 -70 -54 -130 -54 -134 0 -4 -6 -21 -14 -38 -23 -52 -92 -218 -116
-282 -13 -33 -31 -79 -41 -102 -23 -51 -24 -73 -4 -73 10 0 15 10 15 34 0 18
6 39 14 45 8 6 19 31 25 56 6 24 15 47 21 50 5 3 10 13 10 22 0 17 27 81 60
145 11 20 20 47 20 58 0 12 9 33 20 47 11 14 20 34 20 44 0 11 9 36 20 56 11
21 20 45 20 54 0 9 7 22 15 29 8 7 15 22 15 34 0 11 9 35 20 51 11 17 20 41
20 55 0 14 9 39 20 55 11 17 20 37 20 46 0 9 7 22 15 29 8 7 18 30 21 52 4 23
14 43 26 49 11 6 18 18 16 27 -2 13 -15 17 -50 18 -26 1 -51 -3 -57 -9z"></path>
<path d="M3158 1053 c-27 -2 -48 -8 -48 -13 0 -5 21 -10 48 -12 56 -4 63 -22
10 -26 -53 -4 -47 -22 7 -23 25 -1 51 -2 58 -3 6 -1 13 12 15 27 4 30 -13 58
-32 55 -6 -1 -32 -3 -58 -5z"></path>
<path d="M6028 1053 c-12 -3 -18 -14 -18 -34 0 -31 14 -39 24 -14 4 11 13 14
32 9 23 -6 25 -4 22 17 -3 24 -24 32 -60 22z"></path>
<path d="M6877 1053 c-41 -4 -50 -8 -60 -31 -6 -15 -27 -45 -47 -68 -40 -47
-160 -206 -176 -235 -6 -10 -18 -27 -27 -37 -18 -19 -24 -47 -8 -38 4 3 70 87
146 186 138 182 168 211 188 191 11 -11 2 -27 -127 -202 -83 -112 -96 -133
-96 -157 0 -9 57 -88 126 -175 115 -144 140 -187 106 -187 -14 0 -151 155
-216 245 -8 11 -18 17 -22 13 -9 -9 19 -49 106 -153 36 -43 72 -89 80 -102 13
-21 24 -25 83 -29 42 -3 67 -1 67 6 0 5 -7 10 -15 10 -9 0 -19 8 -22 18 -4 9
-43 61 -87 115 -45 54 -90 111 -101 125 -11 15 -34 46 -52 69 -18 23 -33 50
-33 60 0 11 18 38 40 61 22 22 40 44 40 47 0 9 71 107 132 182 54 67 65 96 35
91 -7 -1 -34 -3 -60 -5z"></path>
<path d="M2585 1040 c3 -5 12 -10 18 -10 25 0 93 -43 139 -87 27 -27 58 -71
74 -107 25 -54 28 -73 28 -166 0 -98 -2 -109 -31 -165 -67 -130 -162 -203
-279 -212 -104 -9 -167 4 -231 47 -32 21 -62 36 -67 33 -12 -8 38 -50 81 -69
17 -7 34 -18 38 -24 4 -6 57 -10 129 -10 95 0 126 3 135 14 7 8 26 18 42 21
37 8 169 149 169 181 0 12 9 33 20 47 17 22 20 40 20 134 0 89 -4 115 -20 146
-11 20 -20 44 -20 53 0 45 -167 184 -221 184 -17 0 -28 -4 -24 -10z"></path>
<path d="M4660 1030 c0 -5 5 -10 10 -10 6 0 10 5 10 10 0 6 -4 10 -10 10 -5 0
-10 -4 -10 -10z"></path>
<path d="M2990 1005 c0 -14 5 -25 10 -25 6 0 10 11 10 25 0 14 -4 25 -10 25
-5 0 -10 -11 -10 -25z"></path>
<path d="M2400 995 c-88 -41 -105 -52 -145 -97 -28 -32 -52 -73 -70 -122 -24
-65 -26 -83 -20 -138 13 -114 89 -223 189 -272 73 -36 174 -36 249 -2 64 29
130 94 165 161 22 43 26 64 26 142 1 56 -3 96 -10 103 -9 9 -11 -16 -11 -94 0
-100 -2 -107 -33 -158 -36 -59 -78 -108 -94 -108 -5 0 -20 -10 -33 -22 -22
-20 -34 -22 -135 -22 -104 0 -112 1 -126 22 -8 12 -20 22 -26 22 -17 0 -58 45
-100 110 -35 52 -36 58 -36 145 0 73 4 96 20 120 11 17 20 37 20 45 0 19 101
120 120 120 7 0 21 6 29 14 9 7 45 16 81 19 55 5 74 2 120 -17 59 -26 150
-108 150 -135 0 -17 18 -41 31 -41 15 0 -6 51 -40 96 -70 94 -233 149 -321
109z"></path>
<path d="M3563 1003 c-7 -2 -13 -9 -13 -14 0 -5 29 -7 68 -4 50 5 73 2 92 -9
14 -8 36 -20 50 -26 31 -14 99 -78 111 -105 5 -11 13 -27 18 -35 5 -8 14 -34
20 -57 14 -53 32 -57 24 -5 -21 132 -172 263 -302 261 -31 0 -62 -3 -68 -6z"></path>
<path d="M5445 996 c-11 -7 -33 -16 -49 -20 -45 -11 -166 -138 -166 -173 1
-27 1 -27 15 -9 8 11 15 26 15 33 0 18 110 122 129 123 8 0 23 8 33 17 13 11
42 19 84 21 35 2 64 8 64 13 0 14 -104 10 -125 -5z"></path>
<path d="M4670 975 c0 -8 5 -15 10 -15 6 0 10 7 10 15 0 8 -4 15 -10 15 -5 0
-10 -7 -10 -15z"></path>
<path d="M3431 925 c-58 -54 -101 -122 -101 -159 0 -15 3 -16 15 -6 8 7 15 22
15 34 0 27 115 156 140 156 9 0 23 7 30 15 11 13 8 15 -13 15 -17 0 -45 -18
-86 -55z"></path>
<path d="M5630 965 c7 -8 19 -15 27 -15 24 0 133 -118 140 -151 7 -34 23 -39
23 -6 0 49 -134 187 -182 187 -17 0 -18 -2 -8 -15z"></path>
<path d="M4700 890 c0 -5 5 -10 10 -10 6 0 10 5 10 10 0 6 -4 10 -10 10 -5 0
-10 -4 -10 -10z"></path>
<path d="M6010 870 c0 -16 5 -30 10 -30 6 0 10 14 10 30 0 17 -4 30 -10 30 -5
0 -10 -13 -10 -30z"></path>
<path d="M4620 845 c0 -8 5 -15 10 -15 6 0 10 7 10 15 0 8 -4 15 -10 15 -5 0
-10 -7 -10 -15z"></path>
<path d="M4710 845 c0 -8 5 -15 10 -15 6 0 10 7 10 15 0 8 -4 15 -10 15 -5 0
-10 -7 -10 -15z"></path>
<path d="M2990 815 c0 -19 5 -35 10 -35 6 0 10 16 10 35 0 19 -4 35 -10 35 -5
0 -10 -16 -10 -35z"></path>
<path d="M3040 810 c0 -5 5 -10 10 -10 6 0 10 5 10 10 0 6 -4 10 -10 10 -5 0
-10 -4 -10 -10z"></path>
<path d="M4740 765 c0 -8 5 -15 10 -15 6 0 10 7 10 15 0 8 -4 15 -10 15 -5 0
-10 -7 -10 -15z"></path>
<path d="M6017 753 c-5 -27 -2 -41 7 -32 11 10 17 59 8 59 -5 0 -12 -12 -15
-27z"></path>
<path d="M2990 670 c0 -53 4 -90 10 -90 6 0 10 37 10 90 0 53 -4 90 -10 90 -6
0 -10 -37 -10 -90z"></path>
<path d="M4127 754 c-7 -7 14 -44 26 -44 12 0 4 43 -9 47 -5 2 -13 1 -17 -3z"></path>
<path d="M1060 725 c0 -14 5 -25 10 -25 6 0 10 11 10 25 0 14 -4 25 -10 25 -5
0 -10 -11 -10 -25z"></path>
<path d="M3050 710 c0 -16 5 -30 10 -30 6 0 10 14 10 30 0 17 -4 30 -10 30 -5
0 -10 -13 -10 -30z"></path>
<path d="M1120 690 c0 -22 5 -40 10 -40 6 0 10 18 10 40 0 22 -4 40 -10 40 -5
0 -10 -18 -10 -40z"></path>
<path d="M3310 715 c0 -8 5 -15 10 -15 6 0 10 7 10 15 0 8 -4 15 -10 15 -5 0
-10 -7 -10 -15z"></path>
<path d="M4660 711 c0 -11 5 -23 10 -26 6 -4 10 5 10 19 0 14 -4 26 -10 26 -5
0 -10 -9 -10 -19z"></path>
<path d="M5134 703 c-4 -15 -2 -52 4 -83 7 -31 12 -67 12 -81 0 -13 9 -35 20
-49 11 -14 20 -32 20 -41 0 -22 115 -128 156 -145 18 -8 35 -18 39 -24 4 -6
57 -10 132 -10 110 0 128 2 150 20 14 11 33 20 42 20 25 0 114 83 136 126 11
22 26 47 33 56 20 24 6 38 -38 38 -35 0 -43 -5 -85 -56 -25 -31 -62 -67 -82
-81 -34 -23 -47 -26 -138 -25 -55 0 -113 5 -128 11 -39 15 -135 113 -153 156
-16 39 -40 49 -29 13 30 -100 144 -192 251 -204 124 -13 226 23 291 103 20 24
44 43 54 43 25 0 24 -10 -8 -58 -32 -47 -58 -68 -132 -108 -51 -27 -62 -29
-165 -29 -119 0 -135 5 -224 74 -79 62 -150 223 -139 319 5 46 -9 58 -19 15z"></path>
<path d="M5290 710 c0 -6 87 -10 240 -10 153 0 240 4 240 10 0 6 -87 10 -240
10 -153 0 -240 -4 -240 -10z"></path>
<path d="M3306 653 c8 -32 12 -39 19 -31 9 8 -6 58 -16 58 -5 0 -6 -12 -3 -27z"></path>
<path d="M4170 640 c0 -5 5 -10 10 -10 6 0 10 5 10 10 0 6 -4 10 -10 10 -5 0
-10 -4 -10 -10z"></path>
<path d="M3980 598 c0 -49 -45 -149 -88 -195 -16 -17 -56 -49 -88 -70 l-59
-38 -115 0 c-100 0 -120 3 -158 23 -97 52 -171 146 -193 245 -7 31 -16 57 -21
57 -15 0 5 -104 29 -150 30 -57 128 -160 152 -160 10 0 30 -9 44 -20 22 -17
40 -20 145 -20 71 0 123 4 127 10 4 6 21 17 38 25 72 35 137 87 137 110 0 7 9
20 20 30 11 10 20 25 20 34 0 9 6 25 14 36 19 28 27 71 20 100 -10 39 -24 29
-24 -17z"></path>
<path d="M4690 630 c0 -5 5 -10 10 -10 6 0 10 5 10 10 0 6 -4 10 -10 10 -5 0
-10 -4 -10 -10z"></path>
<path d="M4780 625 c0 -8 5 -15 10 -15 6 0 10 7 10 15 0 8 -4 15 -10 15 -5 0
-10 -7 -10 -15z"></path>
<path d="M6070 595 c0 -19 5 -35 10 -35 6 0 10 16 10 35 0 19 -4 35 -10 35 -5
0 -10 -16 -10 -35z"></path>
<path d="M3912 597 c-7 -16 -12 -36 -12 -46 0 -10 -7 -24 -15 -31 -8 -7 -15
-18 -15 -24 0 -14 -59 -70 -110 -106 -31 -22 -45 -24 -137 -24 -92 0 -105 2
-126 22 -13 12 -27 22 -31 22 -11 0 -66 57 -66 68 0 5 -9 17 -20 27 -11 10
-20 28 -20 40 0 11 -7 30 -15 41 -14 18 -14 18 -15 -5 0 -37 39 -110 82 -153
62 -62 118 -83 223 -83 96 0 132 13 198 74 49 45 99 136 95 173 l-4 33 -12
-28z"></path>
<path d="M6020 595 c0 -14 5 -25 10 -25 6 0 10 11 10 25 0 14 -4 25 -10 25 -5
0 -10 -11 -10 -25z"></path>
<path d="M3050 580 c0 -16 5 -30 10 -30 6 0 10 14 10 30 0 17 -4 30 -10 30 -5
0 -10 -13 -10 -30z"></path>
<path d="M4090 596 c0 -8 5 -18 10 -21 6 -3 10 3 10 14 0 12 -4 21 -10 21 -5
0 -10 -6 -10 -14z"></path>
<path d="M4180 600 c0 -5 5 -10 10 -10 6 0 10 5 10 10 0 6 -4 10 -10 10 -5 0
-10 -4 -10 -10z"></path>
<path d="M1060 565 c0 -19 5 -35 10 -35 6 0 10 16 10 35 0 19 -4 35 -10 35 -5
0 -10 -16 -10 -35z"></path>
<path d="M1120 570 c0 -16 5 -30 10 -30 6 0 10 14 10 30 0 17 -4 30 -10 30 -5
0 -10 -13 -10 -30z"></path>
<path d="M4700 585 c0 -8 5 -15 10 -15 6 0 10 7 10 15 0 8 -4 15 -10 15 -5 0
-10 -7 -10 -15z"></path>
<path d="M2100 500 c0 -27 5 -50 10 -50 6 0 10 23 10 50 0 28 -4 50 -10 50 -5
0 -10 -22 -10 -50z"></path>
<path d="M2990 474 c0 -72 2 -78 36 -120 20 -24 48 -47 63 -50 14 -4 33 -12
41 -19 8 -7 37 -15 63 -19 44 -5 48 -4 59 19 12 28 -2 55 -30 55 -26 0 -101
41 -117 63 -8 12 -15 31 -15 44 0 20 -16 40 -25 31 -3 -2 0 -20 5 -39 12 -42
51 -82 103 -104 49 -20 47 -35 -6 -35 -36 0 -50 7 -90 43 -51 45 -66 82 -67
165 0 23 -4 42 -10 42 -6 0 -10 -32 -10 -76z"></path>
<path d="M4210 521 c0 -12 5 -21 10 -21 6 0 10 6 10 14 0 8 -4 18 -10 21 -5 3
-10 -3 -10 -14z"></path>
<path d="M1062 388 c3 -106 4 -113 24 -116 11 -2 26 3 32 10 15 19 26 68 14
68 -5 0 -12 -10 -15 -22 -5 -18 -8 -19 -21 -8 -12 9 -16 33 -16 96 0 51 -4 84
-10 84 -7 0 -10 -40 -8 -112z"></path>
<path d="M4735 473 c7 -30 13 -39 19 -32 8 8 -6 59 -16 59 -6 0 -7 -11 -3 -27z"></path>
<path d="M1120 470 c0 -11 5 -20 10 -20 6 0 10 9 10 20 0 11 -4 20 -10 20 -5
0 -10 -9 -10 -20z"></path>
<path d="M6020 475 c0 -8 5 -15 10 -15 6 0 10 7 10 15 0 8 -4 15 -10 15 -5 0
-10 -7 -10 -15z"></path>
<path d="M4130 470 c0 -5 5 -10 10 -10 6 0 10 5 10 10 0 6 -4 10 -10 10 -5 0
-10 -4 -10 -10z"></path>
<path d="M2100 210 c0 -133 4 -210 10 -210 6 0 10 77 10 210 0 133 -4 210 -10
210 -6 0 -10 -77 -10 -210z"></path>
<path d="M6015 399 c-4 -6 -5 -13 -2 -16 7 -7 27 6 27 18 0 12 -17 12 -25 -2z"></path>
<path d="M4166 363 c8 -32 24 -55 24 -32 0 26 -12 59 -21 59 -5 0 -6 -12 -3
-27z"></path>
<path d="M4774 338 c11 -54 27 -55 19 0 -3 17 -10 32 -15 32 -6 0 -8 -13 -4
-32z"></path>
<path d="M6070 351 c0 -26 -15 -34 -30 -16 -16 19 -30 10 -30 -19 0 -32 24
-50 55 -42 22 6 25 12 25 51 0 25 -4 45 -10 45 -5 0 -10 -9 -10 -19z"></path>
<path d="M2166 344 c-3 -9 -6 -90 -6 -180 0 -139 2 -164 15 -164 13 0 15 27
15 180 0 163 -7 209 -24 164z"></path>
<path d="M1676 254 c-3 -9 -6 -23 -6 -32 0 -8 -7 -23 -15 -32 -9 -10 -19 -35
-22 -56 -3 -22 -12 -46 -19 -55 -8 -8 -17 -30 -20 -47 -5 -25 -3 -32 10 -32
11 0 16 9 16 26 0 15 9 45 19 68 34 72 61 144 61 160 0 21 -16 21 -24 0z"></path>
<path d="M4200 256 c0 -7 7 -19 15 -26 16 -13 20 -3 9 24 -8 20 -24 21 -24 2z"></path>
<path d="M4810 240 c0 -5 5 -10 10 -10 6 0 10 5 10 10 0 6 -4 10 -10 10 -5 0
-10 -4 -10 -10z"></path>
</g>
</svg>
